<?xml version="1.0" encoding="utf-8"?>
<!-- Generator: Adobe Illustrator 24.3.0, SVG Export Plug-In . SVG Version: 6.00 Build 0)  -->
<svg version="1.1" id="Layer_1" xmlns="http://www.w3.org/2000/svg" xmlns:xlink="http://www.w3.org/1999/xlink" x="0px" y="0px"
	 viewBox="0 0 148.5 115.1" style="enable-background:new 0 0 148.5 115.1;" xml:space="preserve">
<style type="text/css">
	.st0{fill:#FFFFFF;}
</style>
<path class="st0" d="M10.6,104.8c-0.2-0.3,4.3-6.1,9.8-11.8c3.6-3.6,8.1-7.3,10.6-9.1c6.5-4.8,20.3-13.8,24.7-16.4s9.7-5.6,9.7-5.3
	c0,0.1-2,3.3-5.4,6.9c-6.7,7-17.8,17.1-23.3,21.7c-4.8,4.1-12.3,10.6-18.2,13.3c-1.9,0.9-3.7,1.2-5.2,1.2
	C11.8,105.3,10.7,105,10.6,104.8 M50.8,3.7c-7,1.7-11.3,6.8-13.2,10.4s0.2,5.9,2.2,6.2c2,0.3,6.7-5.4,15.8-8.9s17.6-1.1,20.7-0.3
	c3.1,0.8,10.1,2.8,14.1,9.3c1.7,2.7,2.5,5.9,2.7,8.6c0.2,3.8-1,7.1-3.8,10c-4.9,5-11.7,8.4-19.4,11.3c-7.7,3-14.3,7.2-18.9,10.1
	c-4.6,2.9-11.1,7.1-14.9,9.8c-3.8,2.7-15.6,11.5-19,14.1C14,86.7,7.7,93.6,5.3,96.8c-2.4,3.3-3.5,5.4-3.7,6.6s-1.1,12,14.3,9.8
	c10-1.4,17.1-8,25.3-15.8c5.3-5,11.3-10.5,16.2-15C66.6,74,75.9,63.5,81,58c2-2.2,3-3.6,3.6-3.8c1.1-0.4,5.7-1.4,9-0.9
	c2.4,0.4,3.6,2,3.9,3.7c0.9,6.7-5.7,18-8.2,21.6s-8.3,6.1-8.7,8.3c-0.4,2.2,1.6,6.2,7.3,5c4-0.9,16.7-8.5,23.6-12.5
	c2.8-1.6,4.4-2.1,4.4-2.1s-4,5.9-4.1,11.2c0,2.4,0.1,5.2,3.9,6.5c3,1.1,6.6-0.1,9.8-1.2c3.8-1.4,7.7-3.7,10.5-5.6
	c2.2-1.5,3.7-2.7,3.9-2.9c0.3-0.4-0.9-1.8-1.4-2.2c-0.5-0.4-2.6-0.6-3.4-0.1c-0.8,0.6-3.8,3-6.9,4.6c-3.2,1.7-7.3,2.6-7.8,1.4
	s4.4-7.6,7.3-11c2.9-3.4,8.5-8.9,9.9-10c0.9-0.6,4.4-2.7,6.4-5.1c1.2-1.4,1.9-3.2,1.7-4.6c-0.6-3.7-5.9-2.6-13.5,1.6
	s-21.3,12.4-23.9,13.9c-2.6,1.5-6.9,4.1-7.2,3.6s7.6-11.4,5.8-22.2S94.2,44.6,94.2,44.6s4.5-3.4,7-11.1c2.2-6.6,1.1-11.3,0.5-13.5
	c-1.4-5.8-7.2-9.7-11.6-11.6c-4.5-2-8.7-4.7-15-5.9c-2.5-0.5-5.6-0.7-8.9-0.7C60.7,2.1,55.1,2.6,50.8,3.7"/>
</svg>
