<?xml version="1.0" encoding="utf-8"?>
<!-- Generator: Adobe Illustrator 24.3.0, SVG Export Plug-In . SVG Version: 6.00 Build 0)  -->
<svg version="1.1" id="Layer_1" xmlns="http://www.w3.org/2000/svg" xmlns:xlink="http://www.w3.org/1999/xlink" x="0px" y="0px"
	 viewBox="0 0 373.6 254.9" style="enable-background:new 0 0 373.6 254.9;" xml:space="preserve">
<style type="text/css">
	.st0{fill:#FFFFFF;}
</style>
<path class="st0" d="M117.3,110.4c-0.2-0.3,4.3-6.1,9.8-11.8c3.6-3.6,8.1-7.3,10.6-9.1c6.5-4.8,20.3-13.8,24.7-16.4
	c4.4-2.6,9.7-5.6,9.7-5.3c0,0.1-2,3.3-5.4,6.9c-6.7,7-17.8,17.1-23.3,21.7c-4.8,4.1-12.3,10.6-18.2,13.3c-1.9,0.9-3.7,1.2-5.2,1.2
	C118.5,110.9,117.4,110.6,117.3,110.4 M157.5,9.3c-7,1.7-11.3,6.8-13.2,10.4c-1.9,3.6,0.2,5.9,2.2,6.2c2,0.3,6.7-5.4,15.8-8.9
	c9.1-3.5,17.6-1.1,20.7-0.3c3.1,0.8,10.1,2.8,14.1,9.3c1.7,2.7,2.5,5.9,2.7,8.6c0.2,3.8-1,7.1-3.8,10c-4.9,5-11.7,8.4-19.4,11.3
	c-7.7,3-14.3,7.2-18.9,10.1c-4.6,2.9-11.1,7.1-14.9,9.8c-3.8,2.7-15.6,11.5-19,14.1c-3.1,2.4-9.4,9.3-11.8,12.5
	c-2.4,3.3-3.5,5.4-3.7,6.6c-0.2,1.2-1.1,12,14.3,9.8c10-1.4,17.1-8,25.3-15.8c5.3-5,11.3-10.5,16.2-15c9.2-8.4,18.5-18.9,23.6-24.4
	c2-2.2,3-3.6,3.6-3.8c1.1-0.4,5.7-1.4,9-0.9c2.4,0.4,3.6,2,3.9,3.7c0.9,6.7-5.7,18-8.2,21.6c-2.5,3.6-8.3,6.1-8.7,8.3
	c-0.4,2.2,1.6,6.2,7.3,5c4-0.9,16.7-8.5,23.6-12.5c2.8-1.6,4.4-2.1,4.4-2.1s-4,5.9-4.1,11.2c0,2.4,0.1,5.2,3.9,6.5
	c3,1.1,6.6-0.1,9.8-1.2c3.8-1.4,7.7-3.7,10.5-5.6c2.2-1.5,3.7-2.7,3.9-2.9c0.3-0.4-0.9-1.8-1.4-2.2c-0.5-0.4-2.6-0.6-3.4-0.1
	c-0.8,0.6-3.8,3-6.9,4.6c-3.2,1.7-7.3,2.6-7.8,1.4c-0.5-1.2,4.4-7.6,7.3-11c2.9-3.4,8.5-8.9,9.9-10c0.9-0.6,4.4-2.7,6.4-5.1
	c1.2-1.4,1.9-3.2,1.7-4.6c-0.6-3.7-5.9-2.6-13.5,1.6c-7.6,4.2-21.3,12.4-23.9,13.9c-2.6,1.5-6.9,4.1-7.2,3.6
	c-0.3-0.5,7.6-11.4,5.8-22.2c-1.8-10.8-12.7-10.6-12.7-10.6s4.5-3.4,7-11.1c2.2-6.6,1.1-11.3,0.5-13.5c-1.4-5.8-7.2-9.7-11.6-11.6
	c-4.5-2-8.7-4.7-15-5.9c-2.5-0.5-5.6-0.7-8.9-0.7C167.4,7.7,161.8,8.2,157.5,9.3"/>
<path class="st0" d="M68.6,155.7c5.4-7.2,11.2-14.3,16.2-21.7c1.6,0,3.3,0.1,4.9,0.1c1.7,0,3.5-0.1,5.3-0.1v1c-2,0-3.4,0.1-4.2,0.5
	c-0.8,0.4-1.1,1-1.1,2.3c0,6.1,0.5,12.6,0.8,18.4c0.1,2.9,0.5,3.7,6.5,3.7v1c-3.3,0-6.6-0.1-9.9-0.1c-2.9,0-5.8,0-8.7,0.1v-1
	c2.1,0,3.6,0,4.6-0.4c1.1-0.4,1.6-1.1,1.6-2.6L84,138.6h-0.1l-14.1,18.9c-0.7,0.9-1.9,2.8-2.3,3.8h-1.2
	c-5.1-7.4-10.8-14.6-16.5-21.9h-0.1l-0.5,14c0,0.5-0.1,1.9-0.1,2.4c0,1.9,0.3,2.9,1.3,3.5c1,0.5,2.5,0.7,4.8,0.7v1
	c-2.5,0-5-0.1-7.4-0.1c-2.6,0-5.3,0-8,0.1v-1c4.2,0,6.9-0.7,7.1-5.8c0.2-5.3,0.7-10.5,0.7-15.8c0-1.4-0.3-2.2-1.1-2.7
	c-0.8-0.5-2.2-0.6-4.1-0.6v-1c2.1,0,4.2,0.1,6.3,0.1c1.3,0,2.6-0.1,3.8-0.1L68.6,155.7z"/>
<path class="st0" d="M119.4,137.7c10.1,0,18.1,5.5,18.1,11.8c0,6-7.1,12-18.2,12c-10.1,0-18.1-5.6-18.1-11.8
	C101.2,143.7,108.3,137.7,119.4,137.7 M119.9,160.4c7.4,0,12-4.1,12-10c0-5-4.5-11.7-13.1-11.7c-7.4,0-12,4.1-12,10
	C106.8,153.7,111.2,160.4,119.9,160.4"/>
<path class="st0" d="M177.1,161.3h-1.2l-26.5-18.7v12.2c0,4.5,0.6,5.4,6,5.4v0.8c-2.2,0-4.5-0.1-6.7-0.1c-2.2,0-4.5,0-6.7,0.1v-0.8
	c3.1,0,5.4,0,5.4-4.1v-13.1c0-2.8-1.9-3.8-6.2-3.8v-0.9c1.6,0,3.1,0.1,4.7,0.1c1.4,0,2.8-0.1,4.1-0.1c2.1,2,6.8,5,12.6,9.1
	c4.3,3.1,9.1,6.3,12.5,8.7v-13c0-3-1.1-3.9-6.1-3.9v-0.9c2.3,0,4.7,0.1,7,0.1c2,0,3.9-0.1,5.9-0.1v0.9c-3.1,0-4.8,0.2-4.8,3.4V161.3
	z"/>
<path class="st0" d="M219.1,142.5h-1.4c-0.2-1.8,0-2.9-4.1-2.9H206v18.3c0,2.3,1.9,2.3,4.6,2.4v0.8c-2.4,0-4.6-0.1-6.8-0.1
	c-2.4,0-4.8,0-7.3,0.1v-0.8c2.7,0,4.6-0.1,4.6-2.4v-18.3h-6.6c-4.6,0-4.8,0.8-5.6,2.9h-1.3l0.6-5.2h1c0.6,0.9,1.9,0.9,3.2,0.9h23
	c1.8,0,3.1-0.3,3.3-0.9h1.1L219.1,142.5z"/>
<path class="st0" d="M248.2,154.5c0.7,1.3,2.1,4,2.9,4.8c0.8,0.7,2.3,0.9,3.9,0.9v0.8c-1.9,0-3.9-0.1-5.8-0.1c-2.5,0-4.9,0-7.4,0.1
	v-0.8h0.9c1.3,0,2.8-0.2,2.8-1.1c0-0.4-0.4-1.3-0.8-1.9l-2.5-4.7h-11.9l-1.1,2.3c-0.7,1.4-1.4,2.9-1.4,3.9c0,1.5,1.7,1.5,3.4,1.5
	h1.2v0.8c-2,0-4-0.1-6-0.1c-2,0-4.1,0-6.1,0.1v-0.8c3.1-0.2,3.6-0.5,4.9-2.3c0.8-1.2,1.4-2.4,2.1-3.7l6.5-11.7
	c0.4-0.7,1.1-2,1.1-2.9c0-0.3,0-0.6-0.1-0.9c1.1-0.3,2.2-0.7,2.9-1.4h0.9L248.2,154.5z M230.9,151.1h10.4l-5.4-9.6h-0.1L230.9,151.1
	z"/>
<path class="st0" d="M292.5,144h-1.1c-1.3-3.8-6.2-5.3-11.9-5.3c-9,0-14.1,5.1-14.1,10.4c0,5.6,5.4,11.3,14.5,11.3
	c4,0,6.1-0.9,6.8-1.3v-4.9c0-2.4-1.9-2.4-4.6-2.4V151c2.4,0,4.7,0.1,7,0.1c2.3,0,4.7,0,6.2-0.1v0.8c-1.7,0-3.6,0-3.6,2.4v4.3
	l0.8,0.5v0.6c-4.1,0.9-8.8,1.9-13.2,1.9c-14.2,0-19.4-7.2-19.4-11.9c0-6.9,8.2-11.9,18.8-11.9c4.5,0,8.8,0.7,13,1.8L292.5,144z"/>
<path class="st0" d="M312.7,148.5h6.7c4.1,0,4.1-2.1,4.3-2.8h1c-0.1,0.7-0.2,2.5-0.2,3.7c0,1,0.3,2.6,0.2,3.6h-1
	c0-3.1-1.6-3.1-5.5-3.1h-5.4v5.6c0,3.6,0.2,4.5,5.2,4.5h3.1c5-0.2,7.2-0.6,9.2-4.1l1.2,0.1c-0.8,1.6-1.6,3.3-2.1,5
	c-5.1,0-10.1-0.1-15.2-0.1c-3.7,0-7.5,0-11.2,0.1v-0.8c4.4,0,4.8-0.5,4.8-3.7v-14.5c0-2.7-0.8-2.8-4.8-2.9v-0.9
	c3.4,0.1,6.8,0.1,10.2,0.1c4.9,0,9.7,0,14.6-0.1v4.9l-1,0.2c-0.8-3.1-3-4-8.1-4h-5.9V148.5z"/>
<path class="st0" d="M18,186.3v9c0,2.7,2.3,2.7,5.4,2.8v1c-2.9,0-5.4-0.1-8.1-0.1c-2.9,0-5.7,0-8.7,0.1v-1c3,0.1,5.4-0.4,5.4-2.6
	v-19.6c0-2.7-2.3-2.7-5.4-2.8v-1c3.3,0,6.2,0.1,9.1,0.1c2.1,0,4.2-0.1,8-0.1c11.3,0,13.8,4.1,13.8,6.8c0,3.3-3.8,5.7-8.5,6.6
	c5.4,5.1,8.3,8.2,10.9,10.1c1.9,1.4,3.7,2.4,6.8,2.4v1c-1.5,0-3-0.1-4.5-0.1c-1.7,0-3.4,0-5.1,0.1c-5.4-3.9-9.5-8.4-13.8-12.7H18z
	 M21.6,173.3c-1.5,0-2.5,0.1-3.6,0.2v11.3c0.9,0.1,2.2,0.2,3.2,0.2c7.4,0,10.2-3.1,10.2-5.9C31.4,175.8,28.7,173.3,21.6,173.3"/>
<path class="st0" d="M62.7,186.6h6.7c4.1,0,4.1-2.1,4.3-2.8h1c-0.1,0.7-0.2,2.5-0.2,3.7c0,1,0.3,2.6,0.2,3.6h-1
	c0-3.1-1.6-3.1-5.5-3.1h-5.4v5.5c0,3.6,0.2,4.5,5.2,4.5h3.1c5-0.2,7.2-0.6,9.2-4.1l1.2,0.1c-0.8,1.6-1.6,3.3-2.1,5
	c-5.1,0-10.1-0.1-15.2-0.1c-3.7,0-7.5,0-11.2,0.1v-0.8c4.4,0,4.8-0.5,4.8-3.7V180c0-2.7-0.8-2.8-4.8-2.9v-0.8
	c3.4,0.1,6.8,0.1,10.2,0.1c4.9,0,9.7,0,14.6-0.1v4.9l-1,0.2c-0.8-3.1-3-4-8.1-4h-5.9V186.6z"/>
<path class="st0" d="M90.7,193.7h1.2c0.9,2.5,3.7,4.8,7.9,4.8c3.9,0,6.9-1.8,6.9-4.3c0-6.1-15-4.3-15-12c0-4.2,4.7-6.4,10.8-6.4
	c2.1,0,4.2,0.3,6.2,0.5l0.8,4.2h-1.2c-0.6-2.3-2.9-3.6-6.5-3.6c-3.8,0-6.1,1.8-6.1,4.2c0,6.1,15.6,4.4,15.6,11.9
	c0,4.2-5.9,6.6-11.9,6.6c-2.6,0-5.4-0.4-7.7-1.1L90.7,193.7z"/>
<path class="st0" d="M125.7,179.5c0-2.3-1.9-2.3-4.6-2.4v-0.8c2.4,0,4.7,0.1,7,0.1c2.3,0,4.7,0,7.2-0.1v0.8c-2.7,0-4.6,0.1-4.6,2.4
	v16.4c0,2.3,1.9,2.3,4.6,2.3v0.8c-2.4,0-4.6-0.1-6.8-0.1c-2.4,0-4.8,0-7.3,0.1v-0.8c2.7,0,4.6-0.1,4.6-2.3V179.5z"/>
<path class="st0" d="M149.8,179.9c0-2.9-2.4-2.7-4.7-2.8v-0.9c2,0.1,4,0.1,6,0.1c2.1,0,5-0.1,8.8-0.1c13.1,0,20.2,5.6,20.2,11.4
	c0,3.2-2.9,11.4-20.9,11.4c-2.6,0-5-0.1-7.3-0.1c-2.3,0-4.5,0-6.8,0.1v-0.9c3-0.2,4.5-0.3,4.7-2.5V179.9z M154.7,195.2
	c0,2.5,2.8,2.8,5.3,2.8c10.9,0,14.5-5.3,14.5-10.2c0-6.1-6.1-10.5-15.8-10.5c-2.1,0-3,0.1-3.9,0.1V195.2z"/>
<path class="st0" d="M196.4,186.6h6.7c4.1,0,4.1-2.1,4.3-2.8h1c-0.1,0.7-0.2,2.5-0.2,3.7c0,1,0.2,2.6,0.2,3.6h-1
	c0-3.1-1.6-3.1-5.5-3.1h-5.4v5.5c0,3.6,0.2,4.5,5.2,4.5h3.1c5-0.2,7.2-0.6,9.2-4.1l1.2,0.1c-0.8,1.6-1.6,3.3-2.1,5
	c-5.1,0-10.1-0.1-15.2-0.1c-3.7,0-7.5,0-11.2,0.1v-0.8c4.4,0,4.8-0.5,4.8-3.7V180c0-2.7-0.8-2.8-4.8-2.9v-0.8
	c3.4,0.1,6.8,0.1,10.2,0.1c4.9,0,9.7,0,14.6-0.1v4.9l-1,0.2c-0.8-3.1-3-4-8.1-4h-5.9V186.6z"/>
<path class="st0" d="M256.7,199.3h-1.2L229,180.6v12.2c0,4.5,0.6,5.4,6,5.4v0.8c-2.2,0-4.5-0.1-6.7-0.1c-2.2,0-4.5,0-6.7,0.1v-0.8
	c3.1,0,5.4,0,5.4-4.1v-13.1c0-2.8-1.9-3.8-6.2-3.8v-0.9c1.6,0,3.1,0.1,4.7,0.1c1.4,0,2.8-0.1,4.1-0.1c2.1,2,6.8,5,12.6,9.1
	c4.3,3.1,9.1,6.3,12.5,8.7v-13c0-3-1.1-3.9-6.1-4v-0.9c2.3,0,4.7,0.1,7,0.1c2,0,3.9-0.1,5.9-0.1v0.9c-3.1,0-4.8,0.2-4.8,3.4V199.3z"
	/>
<path class="st0" d="M298.8,182.2h-1.3c-1-3.8-5.2-5.4-10.8-5.4c-5.8,0-14.3,2.5-14.3,10.4c0,6.6,7.3,11.3,15.1,11.3
	c5,0,9.2-2.2,10.2-5.6l1.2,0.2l-1.2,4.8c-2.1,0.8-7.8,1.7-11.2,1.7c-11.8,0-19.3-4.9-19.3-12.3c0-6.7,9.3-11.5,19.2-11.5
	c4.1,0,8.1,0.8,11.9,1.7L298.8,182.2z"/>
<path class="st0" d="M317.2,186.6h6.7c4.1,0,4.1-2.1,4.3-2.8h1c-0.1,0.7-0.2,2.5-0.2,3.7c0,1,0.3,2.6,0.2,3.6h-1
	c0-3.1-1.6-3.1-5.5-3.1h-5.4v5.5c0,3.6,0.2,4.5,5.2,4.5h3.1c5-0.2,7.2-0.6,9.2-4.1l1.2,0.1c-0.8,1.6-1.6,3.3-2.1,5
	c-5.1,0-10.1-0.1-15.2-0.1c-3.7,0-7.5,0-11.2,0.1v-0.8c4.4,0,4.8-0.5,4.8-3.7V180c0-2.7-0.8-2.8-4.8-2.9v-0.8
	c3.4,0.1,6.8,0.1,10.2,0.1c4.9,0,9.7,0,14.6-0.1v4.9l-1,0.2c-0.8-3.1-3-4-8.1-4h-5.9V186.6z"/>
<path class="st0" d="M343.1,193.7h1.2c0.9,2.5,3.7,4.8,7.9,4.8c3.9,0,6.9-1.8,6.9-4.3c0-6.1-15-4.3-15-12c0-4.2,4.7-6.4,10.8-6.4
	c2.1,0,4.2,0.3,6.2,0.5l0.8,4.2h-1.2c-0.6-2.3-2.9-3.6-6.5-3.6c-3.8,0-6.1,1.8-6.1,4.2c0,6.1,15.6,4.4,15.6,11.9
	c0,4.2-5.9,6.6-11.9,6.6c-2.6,0-5.4-0.4-7.7-1.1L343.1,193.7z"/>
<path class="st0" d="M109.1,234.7v-4.9c0-1.6-0.9-1.6-2-1.6v-0.6c1.2,0,2.2,0,3.3,0c1,0,2,0,3,0v0.6c-1.2,0-2,0-2,1.6V241
	c0,1.6,0.9,1.6,2,1.6v0.6c-1,0-2,0-3,0c-1.1,0-2.1,0-3.3,0v-0.6c1.2,0,2,0,2-1.6v-5.5H100v5.5c0,1.6,0.9,1.6,2,1.6v0.6
	c-1.1,0-2,0-3,0c-1.1,0-2.1,0-3.3,0v-0.6c1.2,0,2,0,2-1.6v-11.3c0-1.6-0.9-1.6-2-1.6v-0.6c1.1,0,2.1,0,3.1,0c1,0,2.1,0,3.2,0v0.6
	c-1.2,0-2,0-2,1.6v4.9H109.1z"/>
<path class="st0" d="M129.7,243.2c-1.9,0-3.7-0.1-5.6-0.1c-1.7,0-3.3,0-5,0.1v-0.7c1.2,0,1.9-0.2,1.9-1.1v-9c0-1-0.7-1.1-1.9-1.1
	v-0.7c1.2,0,2.3,0.1,3.5,0.1c2.1,0,4.3,0,6.4-0.1l0.2,2.7h-0.5c-0.3-1.8-0.8-1.9-3.4-1.9h-1.9v4.9h2.1c1.3,0,1.9,0,1.9-1.8h0.7
	c0,0.7-0.1,1.4-0.1,2.1c0,0.7,0,1.4,0.1,2.1h-0.7c0-1.4-0.3-1.6-1.9-1.6h-2.1v3.8c0,1.1,0.6,1.5,2.8,1.5c2.6,0,2.8-0.3,3.8-2h0.6
	L129.7,243.2z"/>
<path class="st0" d="M143.7,242.6h0.3c0.6,0,1.3-0.2,1.3-0.6c0-0.3-0.1-0.5-0.2-0.9l-1-2.6h-4.4l-0.6,1.7c-0.1,0.3-0.4,1.2-0.4,1.7
	c0,0.6,0.9,0.7,1.3,0.7h0.3v0.7c-0.9,0-1.8-0.1-2.6-0.1c-0.7,0-1.4,0-2.1,0.1v-0.7c1.3,0,1.7-0.5,1.9-1.1l3.7-9.4
	c0.1-0.3,0.3-0.6,0.3-0.9c0-0.1,0-0.2-0.1-0.4l2-0.7l3.9,11c0.4,1.2,0.8,1.5,2.2,1.5v0.7c-1,0-1.9-0.1-2.9-0.1c-1,0-1.9,0-2.9,0.1
	V242.6z M142,232.4L142,232.4l-1.9,5.2h3.8L142,232.4z"/>
<path class="st0" d="M157.3,232.4c0-1-0.7-1.1-1.9-1.1v-0.7c1,0,2,0.1,3,0.1c1,0,2.1,0,3.1-0.1v0.7c-1.1,0-1.9,0.1-1.9,1.1v8.6
	c0,1.1,0.3,1.4,2.4,1.4c2.3,0,2.9-0.4,3.8-2.5h0.6l-0.8,3.3c-0.7,0-4-0.1-4.8-0.1c-1.8,0-3.6,0-5.4,0.1v-0.7c1.2,0,1.9-0.2,1.9-1.1
	V232.4z"/>
<path class="st0" d="M173.7,232.4c0-1-0.7-1.1-1.9-1.1v-0.7c1,0,2,0.1,3.1,0.1c1.3,0,2.6-0.1,3.9-0.1c5.2,0,7.4,3.2,7.4,6.2
	c0,4.9-3.8,6.5-7.5,6.5c-1.1,0-2.4-0.1-3.4-0.1c-1.2,0-2.3,0-3.5,0.1v-0.7c1.2,0,1.9-0.2,1.9-1.1V232.4z M175.9,240.8
	c0,1.5,0.8,1.6,2.1,1.6c2.5,0,5.7-0.8,5.7-5.3c0-3.2-1.5-5.7-4.9-5.7c-0.7,0-2,0.1-2.8,0.1V240.8z"/>
<path class="st0" d="M192.6,240.1h0.6c0.5,1.8,1.3,2.8,3.2,2.8c2,0,2.5-1.3,2.5-2.1c0-1.1-0.6-1.7-2.3-2.6c-2.8-1.5-3.6-2.5-3.6-4.5
	c0-1.8,1.5-3.4,3.8-3.4c1,0,2.2,0.2,3,0.3l0.2,2.5h-0.5c-0.3-1-0.9-2.1-2.6-2.1c-1.3,0-2.2,0.9-2.2,2.1c0,1.2,0.4,1.7,2.9,2.9
	c2.7,1.3,3.3,2.4,3.3,4.1c0,2.1-1.9,3.5-4.6,3.5c-1.2,0-2.2-0.2-3.2-0.7L192.6,240.1z"/>
<path class="st0" d="M208.6,232.4c0-1-0.7-1.1-1.9-1.1v-0.7c1.1,0,2.1,0.1,3.2,0.1c0.9,0,1.8-0.1,2.7-0.1c1.6,0,4.4,0.1,4.4,2.8
	c0,2-1.5,2.5-3.2,2.9v0.1c2.6,0.2,4.5,0.9,4.5,3.5c0,2-1.8,3.5-4.9,3.5c-1,0-2.3-0.1-3.4-0.1c-1.1,0-2.3,0-3.3,0.1v-0.7
	c1.2,0,1.9-0.2,1.9-1.1V232.4z M210.8,236h1.1c1.9,0,2.9-1.1,2.9-2.5c0-2.1-1.8-2.1-2.6-2.1c-0.5,0-1,0.1-1.3,0.1V236z M210.8,241.5
	c0,1,1.1,1,2,1c1.3,0,3.1-0.2,3.1-2.6c0-2.5-2.2-3-3.6-3h-1.4V241.5z"/>
<path class="st0" d="M225.6,232.2c0-0.9-1.1-0.9-1.8-0.9v-0.7c1,0,2,0.1,2.9,0.1c0.9,0,1.9,0,2.7-0.1v0.7c-0.8,0-1.7,0-1.7,0.9v7
	c0,2.4,1.5,3.3,3.5,3.3c3.6,0,3.6-2.8,3.6-5.4v-3c0-2.6-0.3-2.8-2-2.8v-0.7c0.9,0,1.7,0.1,2.6,0.1c0.7,0,1.4,0,2.1-0.1v0.7
	c-0.9,0-1.5,0.1-1.5,1.8v5.2c0,3-1.4,5.2-5.2,5.2c-3.3,0-5.3-1.3-5.3-4.3V232.2z"/>
<path class="st0" d="M245.4,232.4c0-1-0.7-1.1-1.9-1.1v-0.7c1,0,2,0.1,3,0.1c1.2,0,3-0.1,3.8-0.1c2.1,0,3.9,1.1,3.9,3.1
	c0,1.5-1,2.5-2.8,3c2.8,4.8,3.4,5.4,5.1,5.8v0.7c-0.5,0-1.1-0.1-1.5-0.1c-0.6,0-1.1,0-1.7,0.1c-1-1.1-2.6-3.8-4-6
	c-0.3,0-0.6,0.1-0.9,0.1c-0.3,0-0.6,0-0.9-0.1v4.2c0,1.1,0.8,1.1,1.9,1.1v0.7c-1,0-2-0.1-3.1-0.1c-1,0-2,0-3,0.1v-0.7
	c1.2,0,1.9-0.2,1.9-1.1V232.4z M248.6,236.5c2.2,0,3.4-0.8,3.4-2.8c0-1.6-1.1-2.5-3.1-2.5c-0.2,0-1,0.1-1.3,0.1v5.1H248.6z"/>
<path class="st0" d="M273.6,234H273c-0.6-1.4-1.3-2.9-4-2.9c-2.8,0-5.2,1.7-5.2,5.8c0,2.4,1.3,5.8,5.5,5.8c0.6,0,1.2-0.2,1.8-0.4
	c0-0.2,0.1-1.7,0.1-2c0-1.4-0.2-1.8-2-1.8v-0.7c1,0,2.1,0.1,3.1,0.1c0.8,0,1.7-0.1,2.5-0.1v0.7c-1.2,0-1.5,0.2-1.5,1v1.7
	c0,0.5,0,0.9,0.5,1v0.5c-1.3,0.4-3.2,0.9-5.3,0.9c-4.2,0-7.1-2.9-7.1-6.5c0-4.1,3.2-6.7,7.3-6.7c0.7,0,1.2,0.1,2.4,0.2
	c0.3,0.1,2,0.4,2.4,0.4L273.6,234z"/>
</svg>
