<?xml version="1.0" encoding="UTF-8"?>
<svg id="Layer_1" data-name="Layer 1" xmlns="http://www.w3.org/2000/svg" viewBox="0 0 645.378 188.292">
  <g>
    <g>
      <path d="M534.792,53.963A54.386,54.386,0,0,1,545.909,41.37a50.8,50.8,0,0,0-4.253-10.25,65.052,65.052,0,0,1-4.891-11.589,1.963,1.963,0,0,0-1.9-1.394.69.69,0,0,1-.091,0,1.978,1.978,0,0,0-1.948,1.394,65.071,65.071,0,0,1-4.892,11.587,50.95,50.95,0,0,0-4.253,10.251A54.278,54.278,0,0,1,534.792,53.963Z" transform="translate(-22.291 -18.137)" fill="#848585"/>
      <path d="M519,103.484H533.56C530.932,85.725,512.4,72.623,505.8,71.175c-1.278-.28-2.346-.072-2.913.78a2.3,2.3,0,0,0,.256,2.734c10.777,13.371,12.837,21.551,13.738,25.5C517.382,102.393,517.865,103.484,519,103.484Z" transform="translate(-22.291 -18.137)" fill="#848585"/>
      <path d="M511.792,71.286a52.631,52.631,0,0,1,11.867,9.227,38.289,38.289,0,0,1,1.614-7.7c.465-1.437,1.206-3.327,2.111-5.411-5.57-5.166-11.663-9.506-21.655-14.016a2.534,2.534,0,0,0-3.055.75,2.7,2.7,0,0,0-.048,3.348A139.048,139.048,0,0,1,511.792,71.286Z" transform="translate(-22.291 -18.137)" fill="#848585"/>
      <path d="M563.85,53.386c-10.027,4.526-16.127,8.881-21.713,14.071.894,2.062,1.627,3.931,2.088,5.356a38.465,38.465,0,0,1,1.623,7.778,52.669,52.669,0,0,1,11.939-9.3,139.017,139.017,0,0,1,9.167-13.8,2.7,2.7,0,0,0-.049-3.348A2.54,2.54,0,0,0,563.85,53.386Z" transform="translate(-22.291 -18.137)" fill="#848585"/>
      <path d="M534.748,58.063c-.581,0-5.649,10.141-7.358,15.434a37.166,37.166,0,0,0-1.685,9.237,42.955,42.955,0,0,1,9.085,16.113A42.913,42.913,0,0,1,543.8,82.826a37.263,37.263,0,0,0-1.692-9.329C540.4,68.2,535.33,58.063,534.748,58.063Z" transform="translate(-22.291 -18.137)" fill="#848585"/>
      <path d="M563.782,71.175c-6.605,1.448-25.134,14.55-27.762,32.309h14.562c1.133,0,1.616-1.091,2.119-3.292.9-3.952,2.961-12.132,13.738-25.5a2.293,2.293,0,0,0,.256-2.734C566.128,71.1,565.06,70.9,563.782,71.175Z" transform="translate(-22.291 -18.137)" fill="#848585"/>
      <path d="M515.59,55.914a71.076,71.076,0,0,1,12.751,9.346,75.726,75.726,0,0,1,5.108-9.271c-6.132-9.445-11.9-14.52-23.962-21.35a2.2,2.2,0,0,0-2.739.447,2.556,2.556,0,0,0-.23,3.183C511.51,45.6,514.174,51.4,515.59,55.914Z" transform="translate(-22.291 -18.137)" fill="#848585"/>
      <path d="M536.139,55.989a75.616,75.616,0,0,1,5.107,9.271A71.121,71.121,0,0,1,554,55.914c1.415-4.513,4.08-10.31,9.072-17.645a2.556,2.556,0,0,0-.231-3.183,2.2,2.2,0,0,0-2.739-.447C548.043,41.469,542.27,46.544,536.139,55.989Z" transform="translate(-22.291 -18.137)" fill="#848585"/>
      <path d="M534.792,53.963A54.386,54.386,0,0,1,545.909,41.37a50.8,50.8,0,0,0-4.253-10.25,65.052,65.052,0,0,1-4.891-11.589,1.963,1.963,0,0,0-1.9-1.394.69.69,0,0,1-.091,0,1.978,1.978,0,0,0-1.948,1.394,65.071,65.071,0,0,1-4.892,11.587,50.95,50.95,0,0,0-4.253,10.251A54.278,54.278,0,0,1,534.792,53.963Z" transform="translate(-22.291 -18.137)" fill="#848585"/>
      <path d="M519,103.484H533.56C530.932,85.725,512.4,72.623,505.8,71.175c-1.278-.28-2.346-.072-2.913.78a2.3,2.3,0,0,0,.256,2.734c10.777,13.371,12.837,21.551,13.738,25.5C517.382,102.393,517.865,103.484,519,103.484Z" transform="translate(-22.291 -18.137)" fill="#848585"/>
      <path d="M511.792,71.286a52.631,52.631,0,0,1,11.867,9.227,38.289,38.289,0,0,1,1.614-7.7c.465-1.437,1.206-3.327,2.111-5.411-5.57-5.166-11.663-9.506-21.655-14.016a2.534,2.534,0,0,0-3.055.75,2.7,2.7,0,0,0-.048,3.348A139.048,139.048,0,0,1,511.792,71.286Z" transform="translate(-22.291 -18.137)" fill="#848585"/>
      <path d="M563.85,53.386c-10.027,4.526-16.127,8.881-21.713,14.071.894,2.062,1.627,3.931,2.088,5.356a38.465,38.465,0,0,1,1.623,7.778,52.669,52.669,0,0,1,11.939-9.3,139.017,139.017,0,0,1,9.167-13.8,2.7,2.7,0,0,0-.049-3.348A2.54,2.54,0,0,0,563.85,53.386Z" transform="translate(-22.291 -18.137)" fill="#848585"/>
      <path d="M534.748,58.063c-.581,0-5.649,10.141-7.358,15.434a37.166,37.166,0,0,0-1.685,9.237,42.955,42.955,0,0,1,9.085,16.113A42.913,42.913,0,0,1,543.8,82.826a37.263,37.263,0,0,0-1.692-9.329C540.4,68.2,535.33,58.063,534.748,58.063Z" transform="translate(-22.291 -18.137)" fill="#848585"/>
      <path d="M563.782,71.175c-6.605,1.448-25.134,14.55-27.762,32.309h14.562c1.133,0,1.616-1.091,2.119-3.292.9-3.952,2.961-12.132,13.738-25.5a2.293,2.293,0,0,0,.256-2.734C566.128,71.1,565.06,70.9,563.782,71.175Z" transform="translate(-22.291 -18.137)" fill="#848585"/>
      <path d="M515.59,55.914a71.076,71.076,0,0,1,12.751,9.346,75.726,75.726,0,0,1,5.108-9.271c-6.132-9.445-11.9-14.52-23.962-21.35a2.2,2.2,0,0,0-2.739.447,2.556,2.556,0,0,0-.23,3.183C511.51,45.6,514.174,51.4,515.59,55.914Z" transform="translate(-22.291 -18.137)" fill="#848585"/>
      <path d="M536.139,55.989a75.616,75.616,0,0,1,5.107,9.271A71.121,71.121,0,0,1,554,55.914c1.415-4.513,4.08-10.31,9.072-17.645a2.556,2.556,0,0,0-.231-3.183,2.2,2.2,0,0,0-2.739-.447C548.043,41.469,542.27,46.544,536.139,55.989Z" transform="translate(-22.291 -18.137)" fill="#848585"/>
    </g>
    <g>
      <path d="M438.249,169.07a33.851,33.851,0,0,0-.044-46.31,29.618,29.618,0,0,0-43.553,0,34.161,34.161,0,0,0,0,46.31,29.668,29.668,0,0,0,43.6,0Zm-21.8,7.1a27.215,27.215,0,0,1-20.08-9,31.532,31.532,0,0,1,.045-42.737,27.019,27.019,0,0,1,40.025,0,31.346,31.346,0,0,1,0,42.737A27.124,27.124,0,0,1,416.451,176.17Z" transform="translate(-22.291 -18.137)" fill="#848585"/>
      <path d="M498.914,114.121a1.04,1.04,0,0,0-1.13,1.176v42.214h-36V115.3a1.131,1.131,0,1,0-2.261,0v60.964a1.03,1.03,0,0,0,1.122,1.176,1.046,1.046,0,0,0,1.139-1.176V159.879h36v16.382a1.131,1.131,0,1,0,2.261,0V115.3A1.041,1.041,0,0,0,498.914,114.121Z" transform="translate(-22.291 -18.137)" fill="#848585"/>
      <path d="M611.707,176.713a1.055,1.055,0,0,0,1.086.724q1.084,0,1.085-1.176V115.749a1.04,1.04,0,0,0-1.133-1.176,1.028,1.028,0,0,0-1.128,1.176v56.983l-41.789-58.069a1.193,1.193,0,0,0-1.628-.181,1.383,1.383,0,0,0-.453,1v60.783a1.132,1.132,0,1,0,2.262,0V118.825l41.608,57.8A.079.079,0,0,0,611.707,176.713Z" transform="translate(-22.291 -18.137)" fill="#848585"/>
      <path d="M667.668,132.038c0-10.4-9.1-18.855-20.277-18.855s-20.276,8.458-20.276,18.855h.008a.14.14,0,0,0,0,.026v44.2a1.131,1.131,0,1,0,2.261,0V159.8h36.026v16.459c0,.784.38,1.176,1.118,1.176a1.036,1.036,0,0,0,1.144-1.176ZM629.38,157.487V132.064c0-.019-.009-.036-.009-.055.017-9.14,8.094-16.572,18.02-16.572,9.881,0,17.922,7.364,18.015,16.445-.006.063,0,25.6,0,25.6Z" transform="translate(-22.291 -18.137)" fill="#848585"/>
      <path d="M534.79,113.183c-11.181,0-20.277,8.458-20.277,18.855h.008a.14.14,0,0,0,0,.026v44.2a1.132,1.132,0,1,0,2.262,0V159.8H552.8v16.459c0,.784.38,1.176,1.118,1.176a1.036,1.036,0,0,0,1.144-1.176V132.038C555.066,121.641,545.97,113.183,534.79,113.183Zm-18.011,44.3V132.064c0-.019-.01-.036-.01-.055.017-9.14,8.094-16.572,18.021-16.572,9.88,0,17.921,7.364,18.014,16.445-.006.063,0,25.6,0,25.6Z" transform="translate(-22.291 -18.137)" fill="#848585"/>
      <path d="M438.249,169.07a33.851,33.851,0,0,0-.044-46.31,29.618,29.618,0,0,0-43.553,0,34.161,34.161,0,0,0,0,46.31,29.668,29.668,0,0,0,43.6,0Zm-21.8,7.1a27.215,27.215,0,0,1-20.08-9,31.532,31.532,0,0,1,.045-42.737,27.019,27.019,0,0,1,40.025,0,31.346,31.346,0,0,1,0,42.737A27.124,27.124,0,0,1,416.451,176.17Z" transform="translate(-22.291 -18.137)" fill="#848585"/>
      <path d="M498.914,114.121a1.04,1.04,0,0,0-1.13,1.176v42.214h-36V115.3a1.131,1.131,0,1,0-2.261,0v60.964a1.03,1.03,0,0,0,1.122,1.176,1.046,1.046,0,0,0,1.139-1.176V159.879h36v16.382a1.131,1.131,0,1,0,2.261,0V115.3A1.041,1.041,0,0,0,498.914,114.121Z" transform="translate(-22.291 -18.137)" fill="#848585"/>
      <path d="M611.707,176.713a1.055,1.055,0,0,0,1.086.724q1.084,0,1.085-1.176V115.749a1.04,1.04,0,0,0-1.133-1.176,1.028,1.028,0,0,0-1.128,1.176v56.983l-41.789-58.069a1.193,1.193,0,0,0-1.628-.181,1.383,1.383,0,0,0-.453,1v60.783a1.132,1.132,0,1,0,2.262,0V118.825l41.608,57.8A.079.079,0,0,0,611.707,176.713Z" transform="translate(-22.291 -18.137)" fill="#848585"/>
      <path d="M667.668,132.038c0-10.4-9.1-18.855-20.277-18.855s-20.276,8.458-20.276,18.855h.008a.14.14,0,0,0,0,.026v44.2a1.131,1.131,0,1,0,2.261,0V159.8h36.026v16.459c0,.784.38,1.176,1.118,1.176a1.036,1.036,0,0,0,1.144-1.176ZM629.38,157.487V132.064c0-.019-.009-.036-.009-.055.017-9.14,8.094-16.572,18.02-16.572,9.881,0,17.922,7.364,18.015,16.445-.006.063,0,25.6,0,25.6Z" transform="translate(-22.291 -18.137)" fill="#848585"/>
      <path d="M534.79,113.183c-11.181,0-20.277,8.458-20.277,18.855h.008a.14.14,0,0,0,0,.026v44.2a1.132,1.132,0,1,0,2.262,0V159.8H552.8v16.459c0,.784.38,1.176,1.118,1.176a1.036,1.036,0,0,0,1.144-1.176V132.038C555.066,121.641,545.97,113.183,534.79,113.183Zm-18.011,44.3V132.064c0-.019-.01-.036-.01-.055.017-9.14,8.094-16.572,18.021-16.572,9.88,0,17.921,7.364,18.014,16.445-.006.063,0,25.6,0,25.6Z" transform="translate(-22.291 -18.137)" fill="#848585"/>
    </g>
    <g>
      <g>
        <path d="M492.369,206.429V194.773h5.074a3.776,3.776,0,0,1,3.611,3.791A3.533,3.533,0,0,1,498.772,202l2.775,4.433h-2.085l-2.561-4.055h-2.693v4.055Zm1.839-5.681h3.218a1.976,1.976,0,0,0,1.757-2.184,2.068,2.068,0,0,0-1.856-2.166h-3.119Z" transform="translate(-22.291 -18.137)" fill="#848585"/>
        <path d="M517.125,204.8v1.625h-8V194.773h7.848V196.4h-6.008v3.316h5.2v1.527h-5.2V204.8Z" transform="translate(-22.291 -18.137)" fill="#848585"/>
        <path d="M523.674,206.429l4.7-11.656h1.511l4.679,11.656h-1.953l-1.249-3.168h-4.5l-1.215,3.168Zm5.451-9.6-1.937,5.074H531Z" transform="translate(-22.291 -18.137)" fill="#848585"/>
        <path d="M541.747,206.429V194.773h1.839V204.8h6.255v1.625Z" transform="translate(-22.291 -18.137)" fill="#848585"/>
        <path d="M564.041,196.4h-3.875v10.031h-1.838V196.4h-3.891v-1.625h9.6Z" transform="translate(-22.291 -18.137)" fill="#848585"/>
        <path d="M572.116,194.773l3.235,5.844,3.25-5.844h2l-4.334,7.486v4.17h-1.856v-4.2l-4.318-7.453Z" transform="translate(-22.291 -18.137)" fill="#848585"/>
      </g>
      <path d="M475.5,199.946H431.848a1.21,1.21,0,0,0,0,2.42H475.5a1.211,1.211,0,1,0,0-2.421Z" transform="translate(-22.291 -18.137)" fill="#848585"/>
      <path d="M638.269,199.946H594.621a1.21,1.21,0,0,0,0,2.42h43.648a1.211,1.211,0,1,0,0-2.421Z" transform="translate(-22.291 -18.137)" fill="#848585"/>
    </g>
  </g>
  <g>
    <path d="M56.2,106.011h1.676v22.722H56V109.975l-7.961,15.18H46.56L38.535,110.1l.032,18.63h-1.9V106.011h1.676l8.992,17.211Z" transform="translate(-22.291 -18.137)" fill="#848585"/>
    <path d="M65.818,127.959a6.7,6.7,0,0,1-2.53-2.836,10.625,10.625,0,0,1,0-8.573,6.7,6.7,0,0,1,2.53-2.836,7.64,7.64,0,0,1,7.558,0,6.567,6.567,0,0,1,2.53,2.836,10.812,10.812,0,0,1,0,8.573,6.567,6.567,0,0,1-2.53,2.836,7.64,7.64,0,0,1-7.558,0Zm7.59-2.385a8.892,8.892,0,0,0-.016-9.459,5.1,5.1,0,0,0-7.59,0,9.028,9.028,0,0,0-.032,9.459,4.593,4.593,0,0,0,3.8,1.644A4.687,4.687,0,0,0,73.408,125.574Z" transform="translate(-22.291 -18.137)" fill="#848585"/>
    <path d="M93.906,118.774v9.959H91.94V118.9a5.056,5.056,0,0,0-.934-3.385,3.754,3.754,0,0,0-2.965-1.063,5,5,0,0,0-3.723,1.418,5.172,5.172,0,0,0-1.4,3.8v9.057H80.95V113.1h1.934v2.675a5.223,5.223,0,0,1,2.143-2.272,6.5,6.5,0,0,1,3.239-.79Q93.906,112.714,93.906,118.774Z" transform="translate(-22.291 -18.137)" fill="#848585"/>
    <path d="M106.766,127.186l-.1,1.643a11.154,11.154,0,0,1-1.515.1,5.241,5.241,0,0,1-4-1.434,5.475,5.475,0,0,1-1.353-3.916v-8.9h-3.1V113.1h3.1v-4.835h1.966V113.1h4.576v1.579h-4.576v8.638a4.244,4.244,0,0,0,.918,2.965,3.475,3.475,0,0,0,2.691,1A9.854,9.854,0,0,0,106.766,127.186Z" transform="translate(-22.291 -18.137)" fill="#848585"/>
    <path d="M120,114.2a6.314,6.314,0,0,1,1.4,4.48v10.056h-1.934v-2.8a5.071,5.071,0,0,1-1.966,2.24,5.561,5.561,0,0,1-2.965.79,6.245,6.245,0,0,1-2.772-.613,4.878,4.878,0,0,1-1.982-1.708,4.283,4.283,0,0,1-.726-2.418,3.815,3.815,0,0,1,.9-2.707,5.5,5.5,0,0,1,3-1.386,31.441,31.441,0,0,1,5.834-.418h.677v-1.193a4.621,4.621,0,0,0-.87-3.111,3.483,3.483,0,0,0-2.74-.983,9.194,9.194,0,0,0-2.723.4,10.821,10.821,0,0,0-2.692,1.306l-.741-1.515a9.7,9.7,0,0,1,2.836-1.386,10.726,10.726,0,0,1,3.223-.516A5.574,5.574,0,0,1,120,114.2Zm-1.87,11.635a5.048,5.048,0,0,0,1.338-3.61v-1.064h-.613a32.717,32.717,0,0,0-4.738.259,4.447,4.447,0,0,0-2.32.886,2.364,2.364,0,0,0-.677,1.821,2.827,2.827,0,0,0,1.032,2.24,3.768,3.768,0,0,0,2.546.886A4.507,4.507,0,0,0,118.127,125.832Z" transform="translate(-22.291 -18.137)" fill="#848585"/>
    <path d="M139.963,113.1V127.83A7.182,7.182,0,0,1,138.271,133a6.653,6.653,0,0,1-5.012,1.756,10.849,10.849,0,0,1-6.768-2.159l.773-1.548a11.464,11.464,0,0,0,2.917,1.531,10.033,10.033,0,0,0,3.11.435,4.663,4.663,0,0,0,3.546-1.257,5.246,5.246,0,0,0,1.192-3.738v-3.062a5.13,5.13,0,0,1-2.079,2.433,6.412,6.412,0,0,1-3.4.854,6.91,6.91,0,0,1-3.658-.967,6.53,6.53,0,0,1-2.482-2.739,9.75,9.75,0,0,1,0-8.122,6.545,6.545,0,0,1,2.482-2.74,6.91,6.91,0,0,1,3.658-.967,6.461,6.461,0,0,1,3.352.822,5.172,5.172,0,0,1,2.1,2.4V113.1Zm-3.336,11.8a7.789,7.789,0,0,0-.016-8.847,4.732,4.732,0,0,0-3.8-1.628,4.791,4.791,0,0,0-3.836,1.612,6.6,6.6,0,0,0-1.386,4.448,6.534,6.534,0,0,0,1.386,4.431,4.812,4.812,0,0,0,3.836,1.6A4.742,4.742,0,0,0,136.627,124.9Z" transform="translate(-22.291 -18.137)" fill="#848585"/>
    <path d="M157.98,121.158H146.151a6.715,6.715,0,0,0,1.547,4.5,5.349,5.349,0,0,0,4.125,1.563,7.742,7.742,0,0,0,5.125-1.934l.773,1.547a7.54,7.54,0,0,1-2.626,1.547,9.5,9.5,0,0,1-3.272.581,7.428,7.428,0,0,1-5.64-2.16,8.232,8.232,0,0,1-2.063-5.931,9.489,9.489,0,0,1,.919-4.27,6.834,6.834,0,0,1,2.578-2.869,7.181,7.181,0,0,1,3.82-1.015,6.037,6.037,0,0,1,4.8,2,8.218,8.218,0,0,1,1.741,5.576Zm-10.153-5.414a6.506,6.506,0,0,0-1.612,3.965h9.959a6.1,6.1,0,0,0-1.289-3.981,4.333,4.333,0,0,0-3.448-1.4A4.757,4.757,0,0,0,147.827,115.744Z" transform="translate(-22.291 -18.137)" fill="#848585"/>
    <path d="M187.953,128.733h-2.192l-3.835-7.284a4.6,4.6,0,0,0-1.8-2.031,6.107,6.107,0,0,0-2.836-.548h-4.738v9.863h-2V106.011h9.089a8.328,8.328,0,0,1,5.511,1.627,6.726,6.726,0,0,1,.4,8.992,7.042,7.042,0,0,1-4.367,1.95,3.756,3.756,0,0,1,1.5.887,6.428,6.428,0,0,1,1.209,1.659Zm-8.444-11.571q5.609,0,5.608-4.8a4.274,4.274,0,0,0-1.386-3.5,6.544,6.544,0,0,0-4.222-1.144h-6.994v9.443Z" transform="translate(-22.291 -18.137)" fill="#848585"/>
    <path d="M205.035,121.158H193.207a6.715,6.715,0,0,0,1.547,4.5,5.346,5.346,0,0,0,4.125,1.563A7.742,7.742,0,0,0,204,125.284l.773,1.547a7.545,7.545,0,0,1-2.627,1.547,9.495,9.495,0,0,1-3.271.581,7.428,7.428,0,0,1-5.64-2.16,8.228,8.228,0,0,1-2.063-5.931,9.5,9.5,0,0,1,.918-4.27,6.843,6.843,0,0,1,2.579-2.869,7.178,7.178,0,0,1,3.819-1.015,6.041,6.041,0,0,1,4.8,2,8.218,8.218,0,0,1,1.74,5.576Zm-10.153-5.414a6.511,6.511,0,0,0-1.611,3.965h9.959a6.107,6.107,0,0,0-1.289-3.981,4.335,4.335,0,0,0-3.449-1.4A4.76,4.76,0,0,0,194.882,115.744Z" transform="translate(-22.291 -18.137)" fill="#848585"/>
    <path d="M208.161,126.863l.741-1.514a8.254,8.254,0,0,0,2.514,1.466,8.86,8.86,0,0,0,2.9.435,5.254,5.254,0,0,0,2.917-.677,2.325,2.325,0,0,0,.338-3.561,4.6,4.6,0,0,0-2.159-.951l-2.643-.612a5.958,5.958,0,0,1-2.982-1.564,3.641,3.641,0,0,1-1.079-2.626,4,4,0,0,1,1.579-3.288,6.588,6.588,0,0,1,4.222-1.257,8.794,8.794,0,0,1,3.078.532,6.079,6.079,0,0,1,2.369,1.531l-.741,1.515a7.668,7.668,0,0,0-2.24-1.418,6.659,6.659,0,0,0-2.466-.452,4.715,4.715,0,0,0-2.771.71,2.275,2.275,0,0,0-1,1.966,2.3,2.3,0,0,0,.629,1.676,3.993,3.993,0,0,0,1.95.967l2.675.644q4.254.967,4.254,4.19a3.761,3.761,0,0,1-1.627,3.191,7.3,7.3,0,0,1-4.4,1.193A8.767,8.767,0,0,1,208.161,126.863Z" transform="translate(-22.291 -18.137)" fill="#848585"/>
    <path d="M224.244,106.494h2.578v2.482h-2.578Zm.29,22.239V113.1H226.5v15.632Z" transform="translate(-22.291 -18.137)" fill="#848585"/>
    <path d="M245,106.011v22.722h-1.966v-3a5.163,5.163,0,0,1-2.095,2.4,6.319,6.319,0,0,1-3.288.823,6.586,6.586,0,0,1-3.642-1.016,6.7,6.7,0,0,1-2.449-2.868,10.012,10.012,0,0,1-.871-4.3,9.712,9.712,0,0,1,.871-4.238,6.483,6.483,0,0,1,6.091-3.82,6.329,6.329,0,0,1,3.288.822,5.172,5.172,0,0,1,2.095,2.4v-9.926Zm-3.3,19.547a7.358,7.358,0,0,0,1.338-4.722,7.492,7.492,0,0,0-1.322-4.738,4.525,4.525,0,0,0-3.771-1.676,4.667,4.667,0,0,0-3.835,1.661,7.232,7.232,0,0,0-1.354,4.689,7.426,7.426,0,0,0,1.354,4.754,5.135,5.135,0,0,0,7.59.032Z" transform="translate(-22.291 -18.137)" fill="#848585"/>
    <path d="M263.017,121.158H251.188a6.715,6.715,0,0,0,1.547,4.5,5.349,5.349,0,0,0,4.125,1.563,7.742,7.742,0,0,0,5.125-1.934l.774,1.547a7.554,7.554,0,0,1-2.627,1.547,9.5,9.5,0,0,1-3.272.581,7.43,7.43,0,0,1-5.64-2.16,8.232,8.232,0,0,1-2.063-5.931,9.5,9.5,0,0,1,.919-4.27,6.836,6.836,0,0,1,2.579-2.869,7.175,7.175,0,0,1,3.819-1.015,6.037,6.037,0,0,1,4.8,2,8.213,8.213,0,0,1,1.741,5.576Zm-10.153-5.414a6.512,6.512,0,0,0-1.612,3.965h9.96a6.107,6.107,0,0,0-1.29-3.981,4.335,4.335,0,0,0-3.448-1.4A4.759,4.759,0,0,0,252.864,115.744Z" transform="translate(-22.291 -18.137)" fill="#848585"/>
    <path d="M280.066,118.774v9.959H278.1V118.9a5.056,5.056,0,0,0-.935-3.385,3.752,3.752,0,0,0-2.965-1.063,5,5,0,0,0-3.723,1.418,5.176,5.176,0,0,0-1.4,3.8v9.057h-1.966V113.1h1.934v2.675a5.225,5.225,0,0,1,2.144-2.272,6.488,6.488,0,0,1,3.238-.79Q280.066,112.714,280.066,118.774Z" transform="translate(-22.291 -18.137)" fill="#848585"/>
    <path d="M287.656,127.959a6.632,6.632,0,0,1-2.563-2.836,9.467,9.467,0,0,1-.9-4.222,9.59,9.59,0,0,1,.919-4.287,6.783,6.783,0,0,1,2.594-2.885,7.448,7.448,0,0,1,3.932-1.015,8.641,8.641,0,0,1,3.046.548,6.1,6.1,0,0,1,2.369,1.515l-.742,1.547a8.832,8.832,0,0,0-2.3-1.45,6.072,6.072,0,0,0-2.305-.452,4.955,4.955,0,0,0-3.98,1.725,7.107,7.107,0,0,0-1.466,4.754,6.848,6.848,0,0,0,1.45,4.657,4.99,4.99,0,0,0,3.964,1.66,6.071,6.071,0,0,0,2.305-.451,9.794,9.794,0,0,0,2.336-1.418l.742,1.514a6.87,6.87,0,0,1-2.45,1.532,8.562,8.562,0,0,1-3.062.564A7.384,7.384,0,0,1,287.656,127.959Z" transform="translate(-22.291 -18.137)" fill="#848585"/>
    <path d="M313.359,121.158H301.531a6.715,6.715,0,0,0,1.547,4.5,5.346,5.346,0,0,0,4.125,1.563,7.743,7.743,0,0,0,5.125-1.934l.773,1.547a7.54,7.54,0,0,1-2.626,1.547,9.5,9.5,0,0,1-3.272.581,7.428,7.428,0,0,1-5.64-2.16,8.232,8.232,0,0,1-2.063-5.931,9.5,9.5,0,0,1,.918-4.27A6.843,6.843,0,0,1,303,113.729a7.18,7.18,0,0,1,3.819-1.015,6.041,6.041,0,0,1,4.8,2,8.218,8.218,0,0,1,1.74,5.576Zm-10.152-5.414a6.506,6.506,0,0,0-1.612,3.965h9.959a6.107,6.107,0,0,0-1.289-3.981,4.335,4.335,0,0,0-3.449-1.4A4.757,4.757,0,0,0,303.207,115.744Z" transform="translate(-22.291 -18.137)" fill="#848585"/>
    <path d="M316.485,126.863l.741-1.514a8.254,8.254,0,0,0,2.514,1.466,8.86,8.86,0,0,0,2.9.435,5.254,5.254,0,0,0,2.917-.677,2.325,2.325,0,0,0,.338-3.561,4.6,4.6,0,0,0-2.159-.951l-2.643-.612a5.95,5.95,0,0,1-2.981-1.564,3.638,3.638,0,0,1-1.08-2.626,4,4,0,0,1,1.579-3.288,6.588,6.588,0,0,1,4.222-1.257,8.794,8.794,0,0,1,3.078.532,6.079,6.079,0,0,1,2.369,1.531l-.741,1.515a7.655,7.655,0,0,0-2.24-1.418,6.659,6.659,0,0,0-2.466-.452,4.718,4.718,0,0,0-2.771.71,2.275,2.275,0,0,0-1,1.966,2.3,2.3,0,0,0,.629,1.676,4,4,0,0,0,1.95.967l2.675.644q4.254.967,4.254,4.19a3.761,3.761,0,0,1-1.627,3.191,7.294,7.294,0,0,1-4.4,1.193A8.767,8.767,0,0,1,316.485,126.863Z" transform="translate(-22.291 -18.137)" fill="#848585"/>
    <path d="M38.761,140.39h1.966v22.722H38.761V152.444h-14.5v10.668H22.291V140.39h1.966V150.7h14.5Z" transform="translate(-22.291 -18.137)" fill="#848585"/>
    <path d="M59.1,155.538H47.269a6.719,6.719,0,0,0,1.547,4.5,5.35,5.35,0,0,0,4.126,1.563,7.739,7.739,0,0,0,5.124-1.934l.774,1.547a7.545,7.545,0,0,1-2.627,1.547,9.495,9.495,0,0,1-3.271.581,7.431,7.431,0,0,1-5.641-2.16,8.232,8.232,0,0,1-2.062-5.931,9.5,9.5,0,0,1,.918-4.27,6.843,6.843,0,0,1,2.579-2.869,7.175,7.175,0,0,1,3.819-1.015,6.037,6.037,0,0,1,4.8,2,8.215,8.215,0,0,1,1.741,5.576Zm-10.153-5.415a6.511,6.511,0,0,0-1.611,3.965h9.959A6.109,6.109,0,0,0,56,150.107a4.335,4.335,0,0,0-3.449-1.4A4.76,4.76,0,0,0,48.945,150.123Z" transform="translate(-22.291 -18.137)" fill="#848585"/>
    <path d="M73.617,148.576a6.309,6.309,0,0,1,1.4,4.48v10.056H73.086v-2.8a5.08,5.08,0,0,1-1.967,2.24,5.556,5.556,0,0,1-2.965.79,6.248,6.248,0,0,1-2.772-.613,4.884,4.884,0,0,1-1.982-1.708,4.289,4.289,0,0,1-.725-2.417,3.82,3.82,0,0,1,.9-2.708,5.507,5.507,0,0,1,3-1.386,31.433,31.433,0,0,1,5.834-.418h.677V152.9a4.62,4.62,0,0,0-.871-3.111,3.48,3.48,0,0,0-2.739-.983,9.2,9.2,0,0,0-2.724.4,10.815,10.815,0,0,0-2.691,1.306L63.32,149a9.687,9.687,0,0,1,2.836-1.386,10.726,10.726,0,0,1,3.223-.516A5.572,5.572,0,0,1,73.617,148.576Zm-1.869,11.635a5.052,5.052,0,0,0,1.338-3.61v-1.063h-.613a32.736,32.736,0,0,0-4.738.258,4.444,4.444,0,0,0-2.32.886,2.36,2.36,0,0,0-.677,1.821,2.826,2.826,0,0,0,1.031,2.24,3.77,3.77,0,0,0,2.546.887A4.508,4.508,0,0,0,71.748,160.211Z" transform="translate(-22.291 -18.137)" fill="#848585"/>
    <path d="M80.143,163.112V140.39h1.966v22.722Z" transform="translate(-22.291 -18.137)" fill="#848585"/>
    <path d="M100.609,140.39v22.722H98.643v-3a5.167,5.167,0,0,1-2.095,2.4,6.327,6.327,0,0,1-3.287.822,6.584,6.584,0,0,1-3.642-1.016,6.7,6.7,0,0,1-2.45-2.868,10.027,10.027,0,0,1-.87-4.3,9.726,9.726,0,0,1,.87-4.238,6.486,6.486,0,0,1,6.092-3.82,6.327,6.327,0,0,1,3.287.822,5.167,5.167,0,0,1,2.095,2.4V140.39Zm-3.3,19.547a7.358,7.358,0,0,0,1.337-4.722,7.491,7.491,0,0,0-1.321-4.738,4.526,4.526,0,0,0-3.771-1.676,4.669,4.669,0,0,0-3.836,1.661,7.238,7.238,0,0,0-1.353,4.689,7.432,7.432,0,0,0,1.353,4.754,5.136,5.136,0,0,0,7.591.032Z" transform="translate(-22.291 -18.137)" fill="#848585"/>
    <path d="M104.8,161.242l.741-1.514a8.254,8.254,0,0,0,2.514,1.466,8.863,8.863,0,0,0,2.9.436,5.254,5.254,0,0,0,2.917-.678,2.325,2.325,0,0,0,.338-3.561,4.6,4.6,0,0,0-2.159-.951l-2.643-.612a5.95,5.95,0,0,1-2.981-1.564,3.642,3.642,0,0,1-1.08-2.626,4,4,0,0,1,1.579-3.288,6.588,6.588,0,0,1,4.222-1.257,8.794,8.794,0,0,1,3.078.532,6.071,6.071,0,0,1,2.369,1.531l-.741,1.515a7.655,7.655,0,0,0-2.24-1.418,6.659,6.659,0,0,0-2.466-.452,4.72,4.72,0,0,0-2.771.71,2.277,2.277,0,0,0-1,1.966,2.3,2.3,0,0,0,.628,1.676,4,4,0,0,0,1.95.967l2.675.644q4.254.967,4.255,4.19a3.759,3.759,0,0,1-1.628,3.191,7.294,7.294,0,0,1-4.4,1.193A8.767,8.767,0,0,1,104.8,161.242Z" transform="translate(-22.291 -18.137)" fill="#848585"/>
    <path d="M132.162,148.093a6.624,6.624,0,0,1,2.45,2.82,9.726,9.726,0,0,1,.87,4.238,10.027,10.027,0,0,1-.87,4.3,6.7,6.7,0,0,1-2.45,2.868,6.583,6.583,0,0,1-3.641,1.016,6.326,6.326,0,0,1-3.288-.822,5.161,5.161,0,0,1-2.095-2.4v3h-1.966V140.39h1.966v9.926a5.161,5.161,0,0,1,2.095-2.4,6.326,6.326,0,0,1,3.288-.822A6.664,6.664,0,0,1,132.162,148.093Zm-.08,11.8a7.383,7.383,0,0,0,1.37-4.738,7.177,7.177,0,0,0-1.37-4.689,4.716,4.716,0,0,0-3.852-1.661,4.525,4.525,0,0,0-3.771,1.676,7.491,7.491,0,0,0-1.321,4.738,7.352,7.352,0,0,0,1.338,4.722,5.136,5.136,0,0,0,7.606-.048Z" transform="translate(-22.291 -18.137)" fill="#848585"/>
    <path d="M152.306,147.48v15.632h-1.933v-2.8a5.186,5.186,0,0,1-2.111,2.256,6.225,6.225,0,0,1-3.111.774,5.377,5.377,0,0,1-4.173-1.532,6.492,6.492,0,0,1-1.4-4.528v-9.8h1.965v9.669a5.127,5.127,0,0,0,.919,3.368,3.58,3.58,0,0,0,2.885,1.08,4.785,4.785,0,0,0,3.626-1.434,5.3,5.3,0,0,0,1.37-3.82V147.48Z" transform="translate(-22.291 -18.137)" fill="#848585"/>
    <path d="M165.65,148.8l-1.386.129a5.254,5.254,0,0,0-3.691,1.644,5.148,5.148,0,0,0-1.144,3.385v9.153h-1.966V147.48H159.4v2.74a4.839,4.839,0,0,1,2.014-2.176,8,8,0,0,1,3.24-.886l.838-.065Z" transform="translate(-22.291 -18.137)" fill="#848585"/>
    <path d="M181.507,147.48v14.729a7.182,7.182,0,0,1-1.692,5.174,6.649,6.649,0,0,1-5.012,1.756,10.849,10.849,0,0,1-6.768-2.159l.773-1.548a11.481,11.481,0,0,0,2.917,1.531,10.033,10.033,0,0,0,3.11.435,4.663,4.663,0,0,0,3.546-1.257,5.246,5.246,0,0,0,1.192-3.738v-3.062a5.13,5.13,0,0,1-2.079,2.433,6.412,6.412,0,0,1-3.4.854,6.918,6.918,0,0,1-3.658-.966,6.539,6.539,0,0,1-2.482-2.74,9.75,9.75,0,0,1,0-8.122,6.545,6.545,0,0,1,2.482-2.74,6.91,6.91,0,0,1,3.658-.967,6.461,6.461,0,0,1,3.352.822,5.167,5.167,0,0,1,2.095,2.4V147.48Zm-3.336,11.8a7.789,7.789,0,0,0-.016-8.847,4.732,4.732,0,0,0-3.8-1.628,4.791,4.791,0,0,0-3.836,1.612,7.8,7.8,0,0,0,0,8.88,4.814,4.814,0,0,0,3.836,1.595A4.74,4.74,0,0,0,178.171,159.276Z" transform="translate(-22.291 -18.137)" fill="#848585"/>
    <path d="M207.646,155.538H195.817a6.714,6.714,0,0,0,1.547,4.5,5.349,5.349,0,0,0,4.125,1.563,7.742,7.742,0,0,0,5.125-1.934l.774,1.547a7.545,7.545,0,0,1-2.627,1.547,9.5,9.5,0,0,1-3.272.581,7.428,7.428,0,0,1-5.64-2.16,8.232,8.232,0,0,1-2.062-5.931,9.5,9.5,0,0,1,.918-4.27,6.843,6.843,0,0,1,2.579-2.869,7.175,7.175,0,0,1,3.819-1.015,6.037,6.037,0,0,1,4.8,2,8.215,8.215,0,0,1,1.741,5.576Zm-10.153-5.415a6.512,6.512,0,0,0-1.612,3.965h9.96a6.109,6.109,0,0,0-1.29-3.981,4.333,4.333,0,0,0-3.448-1.4A4.76,4.76,0,0,0,197.493,150.123Z" transform="translate(-22.291 -18.137)" fill="#848585"/>
    <path d="M218.314,155.054l6.446,8.058h-2.417l-5.222-6.543-5.189,6.543h-2.449l6.446-8.058-6.092-7.574h2.45l4.834,6.092,4.835-6.092h2.449Z" transform="translate(-22.291 -18.137)" fill="#848585"/>
    <path d="M230.094,162.338a6.624,6.624,0,0,1-2.562-2.836,9.45,9.45,0,0,1-.9-4.222,9.593,9.593,0,0,1,.919-4.287,6.783,6.783,0,0,1,2.594-2.885,7.448,7.448,0,0,1,3.932-1.015,8.619,8.619,0,0,1,3.046.549,6.073,6.073,0,0,1,2.369,1.514l-.741,1.547a8.82,8.82,0,0,0-2.3-1.45,6.067,6.067,0,0,0-2.3-.452,4.957,4.957,0,0,0-3.981,1.725,7.107,7.107,0,0,0-1.466,4.754,6.848,6.848,0,0,0,1.45,4.657,4.992,4.992,0,0,0,3.964,1.66,6.071,6.071,0,0,0,2.305-.451,9.818,9.818,0,0,0,2.337-1.418l.741,1.514a6.839,6.839,0,0,1-2.45,1.532,8.561,8.561,0,0,1-3.061.564A7.385,7.385,0,0,1,230.094,162.338Z" transform="translate(-22.291 -18.137)" fill="#848585"/>
    <path d="M242.937,163.112V140.39H244.9v22.722Z" transform="translate(-22.291 -18.137)" fill="#848585"/>
    <path d="M262.759,147.48v15.632h-1.934v-2.8a5.186,5.186,0,0,1-2.111,2.256,6.224,6.224,0,0,1-3.11.774,5.379,5.379,0,0,1-4.174-1.532,6.492,6.492,0,0,1-1.4-4.528v-9.8h1.966v9.669a5.127,5.127,0,0,0,.918,3.368,3.581,3.581,0,0,0,2.885,1.08,4.782,4.782,0,0,0,3.626-1.434,5.3,5.3,0,0,0,1.37-3.82V147.48Z" transform="translate(-22.291 -18.137)" fill="#848585"/>
    <path d="M266.949,161.242l.741-1.514a8.254,8.254,0,0,0,2.514,1.466,8.857,8.857,0,0,0,2.9.436,5.254,5.254,0,0,0,2.917-.678,2.326,2.326,0,0,0,.339-3.561,4.611,4.611,0,0,0-2.16-.951l-2.643-.612a5.95,5.95,0,0,1-2.981-1.564,3.642,3.642,0,0,1-1.08-2.626,4,4,0,0,1,1.58-3.288,6.584,6.584,0,0,1,4.222-1.257,8.8,8.8,0,0,1,3.078.532,6.086,6.086,0,0,1,2.369,1.531L278,150.671a7.668,7.668,0,0,0-2.24-1.418,6.667,6.667,0,0,0-2.466-.452,4.721,4.721,0,0,0-2.772.71,2.277,2.277,0,0,0-1,1.966,2.3,2.3,0,0,0,.628,1.676,4,4,0,0,0,1.95.967l2.676.644q4.252.967,4.254,4.19a3.759,3.759,0,0,1-1.628,3.191,7.292,7.292,0,0,1-4.4,1.193A8.765,8.765,0,0,1,266.949,161.242Z" transform="translate(-22.291 -18.137)" fill="#848585"/>
    <path d="M283.031,140.873h2.579v2.482h-2.579Zm.29,22.239V147.48h1.966v15.632Z" transform="translate(-22.291 -18.137)" fill="#848585"/>
    <path d="M301.789,147.48h2l-6.7,15.632h-2l-6.672-15.632h2.095l5.64,13.633Z" transform="translate(-22.291 -18.137)" fill="#848585"/>
    <path d="M319.58,155.538H307.752a6.714,6.714,0,0,0,1.547,4.5,5.346,5.346,0,0,0,4.125,1.563,7.742,7.742,0,0,0,5.125-1.934l.773,1.547a7.54,7.54,0,0,1-2.626,1.547,9.5,9.5,0,0,1-3.272.581,7.428,7.428,0,0,1-5.64-2.16,8.232,8.232,0,0,1-2.063-5.931,9.5,9.5,0,0,1,.918-4.27,6.843,6.843,0,0,1,2.579-2.869,7.18,7.18,0,0,1,3.819-1.015,6.041,6.041,0,0,1,4.8,2,8.22,8.22,0,0,1,1.74,5.576Zm-10.152-5.415a6.506,6.506,0,0,0-1.612,3.965h9.959a6.109,6.109,0,0,0-1.289-3.981,4.335,4.335,0,0,0-3.449-1.4A4.757,4.757,0,0,0,309.428,150.123Z" transform="translate(-22.291 -18.137)" fill="#848585"/>
    <path d="M323.673,163.112V140.39h1.966v22.722Z" transform="translate(-22.291 -18.137)" fill="#848585"/>
    <path d="M342.14,147.48h2l-9.218,21.433h-2l2.545-5.8-6.7-15.632h2.094l5.641,13.633Z" transform="translate(-22.291 -18.137)" fill="#848585"/>
    <path d="M115.194,196.717a6.7,6.7,0,0,1-2.531-2.836,10.636,10.636,0,0,1,0-8.573,6.7,6.7,0,0,1,2.531-2.836,7.639,7.639,0,0,1,7.557,0,6.576,6.576,0,0,1,2.531,2.836,10.812,10.812,0,0,1,0,8.573,6.57,6.57,0,0,1-2.531,2.836,7.639,7.639,0,0,1-7.557,0Zm7.59-2.384a8.9,8.9,0,0,0-.016-9.46,5.1,5.1,0,0,0-7.591,0,9.035,9.035,0,0,0-.032,9.46,4.6,4.6,0,0,0,3.8,1.643A4.692,4.692,0,0,0,122.784,194.333Z" transform="translate(-22.291 -18.137)" fill="#848585"/>
    <path d="M133.065,181.859h4.577v1.58h-4.577v14.052H131.1V183.439h-3.094v-1.58H131.1v-.773a5.588,5.588,0,0,1,6-6.317l1.128-.065.161,1.612-1.482.064a3.938,3.938,0,0,0-2.9,1.241,4.965,4.965,0,0,0-.935,3.271Z" transform="translate(-22.291 -18.137)" fill="#848585"/>
    <path d="M143.346,181.859h4.577v1.58h-4.577v14.052H141.38V183.439h-3.094v-1.58h3.094v-.773a5.588,5.588,0,0,1,6-6.317l1.128-.065.161,1.612-1.482.064a3.938,3.938,0,0,0-2.9,1.241,4.965,4.965,0,0,0-.935,3.271Z" transform="translate(-22.291 -18.137)" fill="#848585"/>
    <path d="M163.458,189.917H151.629a6.719,6.719,0,0,0,1.547,4.5,5.35,5.35,0,0,0,4.126,1.563,7.739,7.739,0,0,0,5.124-1.934l.774,1.547a7.545,7.545,0,0,1-2.627,1.547,9.495,9.495,0,0,1-3.271.581,7.431,7.431,0,0,1-5.641-2.16,8.231,8.231,0,0,1-2.062-5.93,9.5,9.5,0,0,1,.918-4.271,6.843,6.843,0,0,1,2.579-2.869,7.175,7.175,0,0,1,3.819-1.015,6.035,6.035,0,0,1,4.8,2,8.212,8.212,0,0,1,1.741,5.575ZM153.305,184.5a6.511,6.511,0,0,0-1.611,3.965h9.959a6.109,6.109,0,0,0-1.289-3.981,4.335,4.335,0,0,0-3.449-1.4A4.76,4.76,0,0,0,153.305,184.5Z" transform="translate(-22.291 -18.137)" fill="#848585"/>
    <path d="M175.737,183.18l-1.386.129a5.252,5.252,0,0,0-3.69,1.645,5.138,5.138,0,0,0-1.144,3.384v9.153h-1.966V181.859h1.933v2.74a4.847,4.847,0,0,1,2.015-2.176,8,8,0,0,1,3.239-.886l.838-.065Z" transform="translate(-22.291 -18.137)" fill="#848585"/>
    <path d="M191.014,189.917H179.186a6.714,6.714,0,0,0,1.547,4.5,5.349,5.349,0,0,0,4.125,1.563,7.742,7.742,0,0,0,5.125-1.934l.773,1.547a7.54,7.54,0,0,1-2.626,1.547,9.5,9.5,0,0,1-3.272.581,7.428,7.428,0,0,1-5.64-2.16,8.231,8.231,0,0,1-2.063-5.93,9.49,9.49,0,0,1,.919-4.271,6.834,6.834,0,0,1,2.578-2.869,7.181,7.181,0,0,1,3.82-1.015,6.036,6.036,0,0,1,4.8,2,8.217,8.217,0,0,1,1.74,5.575ZM180.862,184.5a6.506,6.506,0,0,0-1.612,3.965h9.959a6.109,6.109,0,0,0-1.289-3.981,4.335,4.335,0,0,0-3.448-1.4A4.757,4.757,0,0,0,180.862,184.5Z" transform="translate(-22.291 -18.137)" fill="#848585"/>
    <path d="M208.418,174.769v22.722h-1.966v-3a5.167,5.167,0,0,1-2.095,2.4,6.327,6.327,0,0,1-3.287.822,6.582,6.582,0,0,1-3.642-1.016,6.694,6.694,0,0,1-2.45-2.868,10.027,10.027,0,0,1-.87-4.3,9.726,9.726,0,0,1,.87-4.238,6.486,6.486,0,0,1,6.092-3.82,6.327,6.327,0,0,1,3.287.822,5.167,5.167,0,0,1,2.095,2.4v-9.926Zm-3.3,19.547a7.356,7.356,0,0,0,1.337-4.721,7.5,7.5,0,0,0-1.321-4.739,4.528,4.528,0,0,0-3.771-1.676,4.669,4.669,0,0,0-3.836,1.661,7.238,7.238,0,0,0-1.354,4.689,7.432,7.432,0,0,0,1.354,4.754,5.136,5.136,0,0,0,7.591.032Z" transform="translate(-22.291 -18.137)" fill="#848585"/>
    <path d="M232.687,182.472a6.624,6.624,0,0,1,2.45,2.82,9.726,9.726,0,0,1,.87,4.238,10.027,10.027,0,0,1-.87,4.3,6.694,6.694,0,0,1-2.45,2.868,6.586,6.586,0,0,1-3.642,1.016,6.325,6.325,0,0,1-3.287-.822,5.161,5.161,0,0,1-2.095-2.4v3H221.7V174.769h1.966V184.7a5.161,5.161,0,0,1,2.095-2.4,6.325,6.325,0,0,1,3.287-.822A6.668,6.668,0,0,1,232.687,182.472Zm-.08,11.8a7.383,7.383,0,0,0,1.37-4.738,7.177,7.177,0,0,0-1.37-4.689,4.717,4.717,0,0,0-3.852-1.661,4.525,4.525,0,0,0-3.771,1.676,7.493,7.493,0,0,0-1.321,4.739A7.345,7.345,0,0,0,225,194.316a5.136,5.136,0,0,0,7.606-.048Z" transform="translate(-22.291 -18.137)" fill="#848585"/>
    <path d="M251.317,181.859h2L244.1,203.292h-2l2.546-5.8-6.7-15.632h2.095l5.641,13.633Z" transform="translate(-22.291 -18.137)" fill="#848585"/>
  </g>
</svg>
